<?xml version="1.0" encoding="UTF-8" standalone="no"?>
<!-- Created with Inkscape (http://www.inkscape.org/) -->

<svg
   width="71.804207mm"
   height="71.804214mm"
   viewBox="0 0 71.804207 71.804214"
   version="1.1"
   id="svg1"
   xml:space="preserve"
   xmlns="http://www.w3.org/2000/svg"
   xmlns:svg="http://www.w3.org/2000/svg"><defs
     id="defs1" /><g
     id="layer1"
     transform="translate(-615.42085,-472.01668)"><g
       id="g50"><rect
         style="fill:#0876b1;fill-opacity:1;stroke:#204f6b;stroke-width:0;stroke-linecap:square;stroke-linejoin:round;paint-order:stroke markers fill"
         id="rect25-7-19-4-2-3-1"
         width="71.804184"
         height="71.804184"
         x="615.42084"
         y="472.01666" /><path
         id="path7-6-8"
         style="fill:#ffffff;fill-opacity:1;stroke:#204f6b;stroke-width:0;stroke-linecap:square;stroke-linejoin:round;paint-order:stroke markers fill"
         d="m 627.66804,484.95711 4.98988,37.60752 4.15789,-10.81122 4.98987,14.78411 0.73897,-16.81706 6.93033,8.22378 -3.47576,-14.16296 16.68891,15.91841 -0.18449,3.69642 8.13129,7.48429 0.27699,-1.94045 1.94045,-0.18448 -0.18449,-1.75597 2.30994,-0.18448 -8.40879,-8.0393 -3.32641,-0.27699 -15.55978,-15.1629 11.30939,2.68873 -5.63635,-7.20731 17.83354,3.41891 -13.49065,-7.7618 10.25622,-1.01648 z m 1.94045,2.21744 16.72508,8.31628 -6.28334,1.29346 -1.57096,6.37584 z" /></g></g></svg>
