<?xml version="1.0" encoding="UTF-8" standalone="no"?>
<!-- Created with Inkscape (http://www.inkscape.org/) -->

<svg
   width="71.804146mm"
   height="71.804146mm"
   viewBox="0 0 71.804146 71.804146"
   version="1.1"
   id="svg1"
   xml:space="preserve"
   xmlns="http://www.w3.org/2000/svg"
   xmlns:svg="http://www.w3.org/2000/svg"><defs
     id="defs1" /><g
     id="layer1"
     transform="translate(-701.59993,-470.29604)"><g
       id="g49"><rect
         style="fill:#0876b1;fill-opacity:1;stroke:#204f6b;stroke-width:0;stroke-linecap:square;stroke-linejoin:round;paint-order:stroke markers fill"
         id="rect25-7-19-4-2-3-1-5"
         width="71.804184"
         height="71.804184"
         x="701.59991"
         y="470.29602" /><path
         id="path2-7-9"
         style="fill:#ffffff;fill-opacity:1;stroke:#204f6b;stroke-width:0;stroke-linecap:square;stroke-linejoin:round;paint-order:stroke markers fill"
         d="m 758.71053,481.88952 c 0,0 -11.00101,14.85394 -29.22922,29.22922 -1.63339,1.28813 3.54294,5.51129 3.54294,5.51129 0,0 18.29227,-12.96507 23.42234,-22.24153 2.20285,-3.98331 2.26394,-12.49898 2.26394,-12.49898 z m -32.41921,28.85973 c -1.05359,0.0239 -2.61689,0.66508 -2.61689,0.66508 l 2.06706,4.32997 c -4.51211,4.03412 -6.26488,6.26238 -6.59495,7.5339 a 3.9857957,3.6905515 0 0 0 -2.85305,3.53777 3.9857957,3.6905515 0 0 0 3.9858,3.69073 3.9857957,3.6905515 0 0 0 3.9858,-3.69073 3.9857957,3.6905515 0 0 0 -0.33383,-1.47588 c 0.71894,-1.46418 2.51582,-4.87949 4.17184,-5.95415 1.47679,-0.95835 4.72426,2.36161 4.72426,2.36161 l 0.78703,-3.73982 c 0,0 -5.37887,-1.79904 -6.39702,-6.79029 -0.0739,-0.36216 -0.44714,-0.47905 -0.92605,-0.46819 z m -5.94744,13.92577 a 2.26157,2.0940461 0 0 1 2.26136,2.09393 2.26157,2.0940461 0 0 1 -2.26136,2.09393 2.26157,2.0940461 0 0 1 -2.26187,-2.09393 2.26157,2.0940461 0 0 1 2.26187,-2.09393 z" /></g></g></svg>
