<?xml version="1.0" encoding="UTF-8" standalone="no"?>
<!-- Created with Inkscape (http://www.inkscape.org/) -->

<svg
   width="71.804176mm"
   height="71.804192mm"
   viewBox="0 0 71.804176 71.804192"
   version="1.1"
   id="svg1"
   xml:space="preserve"
   xmlns="http://www.w3.org/2000/svg"
   xmlns:svg="http://www.w3.org/2000/svg"><defs
     id="defs1" /><g
     id="layer1"
     transform="translate(-388.52058,196.01946)"><g
       id="g39"><rect
         style="fill:#000000;fill-opacity:1;stroke:#204f6b;stroke-width:0;stroke-linecap:square;stroke-linejoin:round;paint-order:stroke markers fill"
         id="rect25-7-2-05"
         width="71.804184"
         height="71.804184"
         x="388.52057"
         y="-196.01945" /><path
         id="path4-7-5-3-3"
         style="fill:#2a9dc7;fill-opacity:1;stroke:#204f6b;stroke-width:0;stroke-linecap:square;stroke-linejoin:round;paint-order:stroke markers fill"
         d="m 424.42266,-182.94595 a 23.359591,22.82869 0 0 0 -23.35981,22.82859 23.359591,22.82869 0 0 0 23.35981,22.82858 23.359591,22.82869 0 0 0 23.35982,-22.82858 23.359591,22.82869 0 0 0 -23.35982,-22.82859 z m 0,4.65863 a 18.592327,18.169773 0 0 1 18.59215,18.16996 18.592327,18.169773 0 0 1 -18.59215,18.16995 18.592327,18.169773 0 0 1 -18.59214,-18.16995 18.592327,18.169773 0 0 1 18.59214,-18.16996 z m 0,4.9935 a 13.482688,13.176262 0 0 0 -13.48289,13.17646 13.482688,13.176262 0 0 0 13.48289,13.17645 13.482688,13.176262 0 0 0 13.4829,-13.17645 13.482688,13.176262 0 0 0 -13.4829,-13.17646 z m 0,4.47259 a 8.9061146,8.703702 0 0 1 8.90592,8.70387 8.9061146,8.703702 0 0 1 -8.90592,8.70386 8.9061146,8.703702 0 0 1 -8.90591,-8.70386 8.9061146,8.703702 0 0 1 8.90591,-8.70387 z m 0,4.45141 a 4.3512115,4.2523203 0 0 0 -4.35115,4.25246 4.3512115,4.2523203 0 0 0 4.35115,4.25245 4.3512115,4.2523203 0 0 0 4.35116,-4.25245 4.3512115,4.2523203 0 0 0 -4.35116,-4.25246 z" /></g></g></svg>
