<?xml version="1.0" encoding="UTF-8" standalone="no"?>
<!-- Created with Inkscape (http://www.inkscape.org/) -->

<svg
   width="71.804176mm"
   height="71.804184mm"
   viewBox="0 0 71.804176 71.804184"
   version="1.1"
   id="svg1"
   xml:space="preserve"
   xmlns="http://www.w3.org/2000/svg"
   xmlns:svg="http://www.w3.org/2000/svg"><defs
     id="defs1" /><g
     id="layer1"
     transform="translate(-387.94615,109.05359)"><g
       id="g42"><rect
         style="fill:#000000;fill-opacity:1;stroke:#204f6b;stroke-width:0;stroke-linecap:square;stroke-linejoin:round;paint-order:stroke markers fill"
         id="rect25-7-2-8"
         width="71.804184"
         height="71.804184"
         x="387.94614"
         y="-109.0536" /><path
         id="path6-9"
         style="fill:#2a9dc7;fill-opacity:1;stroke:#204f6b;stroke-width:0;stroke-linecap:square;stroke-linejoin:round;paint-order:stroke markers fill"
         d="m 428.40945,-99.208226 c -1.6576,-0.0103 -14.82582,0.37559 -22.01054,8.22223 -1.36276,1.48831 11.43573,-4.68478 21.27829,-3.35741 1.05293,0.14198 1.97154,-4.85713 0.73225,-4.86482 z m -1.16117,8.42325 c -7.26699,0.0994 -21.47467,2.84831 -23.67711,6.29988 -0.72003,1.1284 1.08436,7.35819 2.0898,10.94662 0.71728,2.55995 -1.42247,3.39621 -1.14463,5.42344 0.19242,1.40396 0.67316,3.21882 2.18953,3.58273 7.48782,1.79697 16.68954,0.998 19.90266,0.0496 0.67956,-0.20059 -1.359,-1.98127 -1.29346,-2.78639 1.22988,-15.10812 7.37918,-22.43146 5.62239,-23.13709 -0.70489,-0.28312 -2.01218,-0.40173 -3.68918,-0.37879 z m 0.66404,29.47779 c -0.0405,-0.003 -0.0772,-5.4e-4 -0.10955,0.009 -5.43706,1.56773 -13.00412,3.60805 -20.99768,0.94568 -1.79139,-0.59665 -0.71525,5.25813 -2.03967,7.71219 -0.41868,0.77578 -2.04877,0.93035 -2.23914,1.7911 -0.48995,2.21518 2.02005,0.4322 3.50107,0.82837 9.36816,2.50594 27.53683,3.16806 29.28917,2.85358 8.84112,-1.58665 12.54172,-14.97754 7.91115,-12.63799 -8.87777,4.4854 -14.05964,-1.40066 -15.31535,-1.50172 z" /></g></g></svg>
