<?xml version="1.0" encoding="UTF-8" standalone="no"?>
<!-- Created with Inkscape (http://www.inkscape.org/) -->

<svg
   width="71.804184mm"
   height="71.804184mm"
   viewBox="0 0 71.804184 71.804184"
   version="1.1"
   id="svg1"
   xml:space="preserve"
   xmlns="http://www.w3.org/2000/svg"
   xmlns:svg="http://www.w3.org/2000/svg"><defs
     id="defs1" /><g
     id="layer1"
     transform="translate(108.50603,85.311384)"><g
       id="g27"><rect
         style="fill:#000000;fill-opacity:1;stroke:#204f6b;stroke-width:0;stroke-linecap:square;stroke-linejoin:round;paint-order:stroke markers fill"
         id="rect25-7-4"
         width="71.804184"
         height="71.804184"
         x="-108.50603"
         y="-85.311386" /><path
         id="path4-7-5-1"
         style="fill:#ff0000;fill-opacity:1;stroke:#204f6b;stroke-width:0;stroke-linecap:square;stroke-linejoin:round;paint-order:stroke markers fill"
         d="m -72.60394,-72.237875 a 23.359591,22.82869 0 0 0 -23.35981,22.828581 23.359591,22.82869 0 0 0 23.35981,22.82858 23.359591,22.82869 0 0 0 23.35982,-22.82858 23.359591,22.82869 0 0 0 -23.35982,-22.828581 z m 0,4.65863 a 18.592327,18.169773 0 0 1 18.59215,18.169951 18.592327,18.169773 0 0 1 -18.59215,18.16995 18.592327,18.169773 0 0 1 -18.59214,-18.16995 18.592327,18.169773 0 0 1 18.59214,-18.169951 z m 0,4.993494 a 13.482688,13.176262 0 0 0 -13.48289,13.176457 13.482688,13.176262 0 0 0 13.48289,13.176456 13.482688,13.176262 0 0 0 13.4829,-13.176456 13.482688,13.176262 0 0 0 -13.4829,-13.176457 z m 0,4.472595 a 8.9061146,8.703702 0 0 1 8.90592,8.703862 8.9061146,8.703702 0 0 1 -8.90592,8.703861 8.9061146,8.703702 0 0 1 -8.90591,-8.703861 8.9061146,8.703702 0 0 1 8.90591,-8.703862 z m 0,4.451408 a 4.3512115,4.2523203 0 0 0 -4.35115,4.252454 4.3512115,4.2523203 0 0 0 4.35115,4.252453 4.3512115,4.2523203 0 0 0 4.35116,-4.252453 4.3512115,4.2523203 0 0 0 -4.35116,-4.252454 z" /></g></g></svg>
