<?xml version="1.0" encoding="UTF-8" standalone="no"?>
<!-- Created with Inkscape (http://www.inkscape.org/) -->

<svg
   width="71.804184mm"
   height="71.804184mm"
   viewBox="0 0 71.804184 71.804184"
   version="1.1"
   id="svg1"
   xml:space="preserve"
   xmlns="http://www.w3.org/2000/svg"
   xmlns:svg="http://www.w3.org/2000/svg"><defs
     id="defs1" /><g
     id="layer1"
     transform="translate(108.66796,5.4494251)"><g
       id="g28"><rect
         style="fill:#000000;fill-opacity:1;stroke:#204f6b;stroke-width:0;stroke-linecap:square;stroke-linejoin:round;paint-order:stroke markers fill"
         id="rect25"
         width="71.804184"
         height="71.804184"
         x="-108.66795"
         y="-5.4494252" /><path
         id="path2-58"
         style="fill:#ff0000;stroke:#204f6b;stroke-width:0;stroke-linecap:square;stroke-linejoin:round;paint-order:stroke markers fill"
         d="m -51.557337,6.1440733 c 0,0 -11.001014,14.8539477 -29.229223,29.2292237 -1.633386,1.288133 3.542936,5.511291 3.542936,5.511291 0,0 18.292274,-12.965072 23.422343,-22.241536 2.20285,-3.983309 2.263944,-12.4989787 2.263944,-12.4989787 z M -83.976547,35.00381 c -1.053597,0.02391 -2.616894,0.665076 -2.616894,0.665076 l 2.067057,4.329968 c -4.512103,4.03412 -6.264875,6.262377 -6.594946,7.533907 a 3.9857957,3.6905515 0 0 0 -2.853056,3.537769 3.9857957,3.6905515 0 0 0 3.985803,3.69073 3.9857957,3.6905515 0 0 0 3.985804,-3.69073 3.9857957,3.6905515 0 0 0 -0.33383,-1.475879 c 0.718937,-1.464186 2.515823,-4.879497 4.171838,-5.954159 1.476786,-0.958349 4.72426,2.361613 4.72426,2.361613 l 0.787032,-3.739823 c 0,0 -5.378867,-1.799038 -6.397026,-6.790283 -0.07388,-0.362166 -0.447133,-0.479057 -0.926042,-0.468189 z m -5.94744,13.925765 a 2.26157,2.0940461 0 0 1 2.261361,2.093929 2.26157,2.0940461 0 0 1 -2.261361,2.093929 2.26157,2.0940461 0 0 1 -2.261878,-2.093929 2.26157,2.0940461 0 0 1 2.261878,-2.093929 z" /></g></g></svg>
