<?xml version="1.0" encoding="UTF-8" standalone="no"?>
<!-- Created with Inkscape (http://www.inkscape.org/) -->

<svg
   width="71.804176mm"
   height="71.804214mm"
   viewBox="0 0 71.804176 71.804214"
   version="1.1"
   id="svg1"
   xml:space="preserve"
   xmlns="http://www.w3.org/2000/svg"
   xmlns:svg="http://www.w3.org/2000/svg"><defs
     id="defs1" /><g
     id="layer1"
     transform="translate(-506.41246,-556.15416)"><g
       id="g55"><rect
         style="fill:#1c9688;fill-opacity:1;stroke:#204f6b;stroke-width:0;stroke-linecap:square;stroke-linejoin:round;paint-order:stroke markers fill"
         id="rect25-7-19-4-2-9"
         width="71.804184"
         height="71.804184"
         x="506.41248"
         y="556.15417" /><path
         id="path10-0"
         style="fill:#ffffff;fill-opacity:1;stroke:#204f6b;stroke-width:0;stroke-linecap:square;stroke-linejoin:round;paint-order:stroke markers fill"
         d="m 548.77751,567.51373 c -3.47398,-0.0669 -7.47388,1.83871 -12.49226,7.56337 l 2.08204,2.41794 8.19382,-6.38049 c 3.94672,-0.5853 4.55404,0.49899 5.77639,1.27589 l -2.61948,2.95537 2.28358,2.35076 6.11177,-5.91075 c -2.91422,-2.16593 -5.86188,-4.20518 -9.33586,-4.27209 z m -13.34699,0.12351 c -5.46775,-0.11763 -9.22011,4.4173 -9.22011,4.4173 l 12.22406,12.35842 2.68666,-2.5523 c -2.40991,-2.94544 -9.95138,-9.05726 -9.40356,-9.5374 3.31651,-2.90675 6.55379,-0.35099 6.44818,-0.3359 0,0 3.1634,-2.43521 2.21641,-2.95537 -1.75525,-0.96411 -3.42067,-1.36181 -4.95164,-1.39475 z m 10.39213,5.96243 -2.61948,2.41794 8.05946,8.19381 2.82102,-2.75384 z m -23.64248,2.41794 c 0,0 -11.61802,10.8919 2.5523,21.42556 0.98821,0.73461 2.95537,-2.21692 2.95537,-2.21692 0,0 -9.13416,-7.73798 -5.30614,-13.29841 0.46582,-0.67663 2.68666,2.5523 2.68666,2.5523 l 2.68666,-2.48512 z m 40.16499,0.53691 -12.35842,11.82099 2.14922,2.41794 9.5374,-8.99997 c 1.40823,1.33348 2.24306,3.13442 0.80616,6.24613 l 2.82049,2.61948 c 1.389,-3.46655 3.94281,-7.35788 -2.95485,-14.10457 z m -30.49323,3.55999 -8.52971,8.46254 1.94768,2.14922 8.73177,-8.39535 z m 13.23175,0.0672 -22.56762,22.43274 c -1.21296,-1.7842 -1.71782,-3.99299 -1.14153,-6.85074 l -2.5523,-1.81333 c 0,0 -3.6781,11.70768 2.68666,13.56713 1.35199,0.39498 25.79119,-25.18657 25.79119,-25.18657 z m -12.82868,6.58203 -2.61947,2.48512 2.01486,1.88051 2.61948,-2.48512 z m 13.50047,0.0672 -2.5523,2.82102 8.05946,7.92509 2.68666,-2.68614 z m 13.70149,0.0672 -2.35076,2.68666 c 3.07968,3.32802 7.6144,5.08756 5.30614,13.29841 l -3.2241,-2.61948 -2.5523,2.41794 5.57486,5.30614 c 4.71797,-5.37484 8.35943,-11.31728 -2.75384,-21.08967 z m -14.17174,6.31331 -2.28359,2.2164 2.21641,2.08256 2.14922,-2.2841 z m -5.97793,0.3359 -2.82102,2.61947 16.45584,15.9179 c -1.82764,2.03152 -4.35349,2.01216 -6.7169,1.00769 l -2.41794,2.95537 c 5.32839,0.85451 10.48667,1.21119 13.70201,-4.09742 z m 19.0748,0.26871 -8.66407,8.19434 2.08204,2.14922 8.52972,-8.59741 z m -19.94762,6.04511 -12.4256,13.0297 c 8.94983,6.76477 15.46012,3.51496 21.02249,-3.62665 l -2.08204,-2.01538 c -3.46079,3.36375 -6.13566,7.97177 -13.70149,4.83588 l 9.47022,-10.07432 z m -6.11229,0.2682 -2.82101,2.82102 1.88102,1.67948 2.68614,-2.75383 z m 6.78357,6.38101 -2.61948,2.68666 1.81384,1.61178 2.61948,-2.55229 z" /></g></g></svg>
