<?xml version="1.0" encoding="UTF-8" standalone="no"?>
<!-- Created with Inkscape (http://www.inkscape.org/) -->

<svg
   width="71.804207mm"
   height="71.804184mm"
   viewBox="0 0 71.804207 71.804184"
   version="1.1"
   id="svg1"
   xml:space="preserve"
   xmlns="http://www.w3.org/2000/svg"
   xmlns:svg="http://www.w3.org/2000/svg"><defs
     id="defs1" /><g
     id="layer1"
     transform="translate(-878.94582,122.76666)"><g
       id="g46"><rect
         style="fill:#b90707;fill-opacity:1;stroke:#204f6b;stroke-width:0;stroke-linecap:square;stroke-linejoin:round;paint-order:stroke markers fill"
         id="rect25-7-2-4-7-4"
         width="71.804184"
         height="71.804184"
         x="878.94586"
         y="-122.76666" /><path
         id="path2-5-7-4"
         style="fill:#ffffff;fill-opacity:1;stroke:#204f6b;stroke-width:0;stroke-linecap:square;stroke-linejoin:round;paint-order:stroke markers fill"
         d="m 926.87301,-113.27893 c 0,0 -9.17795,16.044514 -25.58914,32.463654 -1.47057,1.47127 4.16667,5.05602 4.16667,5.05602 0,0 16.64066,-15.02599 20.64422,-24.841374 1.71913,-4.21472 0.77825,-12.6783 0.77825,-12.6783 z m 2.63239,7.6724 c -0.32422,0.0165 -0.50753,0.14556 -0.48679,0.4284 0.77638,10.588374 -7.90651,16.556094 -18.07642,26.276434 -1.26547,1.20954 4.45038,5.85132 4.45038,5.85132 l 0.20877,-7.34218 12.6199,6.69364 -6.4704,-11.35279 16.16077,4.92011 -10.19731,-11.44271 11.97188,-0.94671 -8.99015,-6.50762 6.41821,-3.473174 c 0,0 -5.85804,-3.19397 -7.60884,-3.10472 z m -31.09681,24.777304 c -0.10455,-0.003 -0.21732,0.005 -0.33589,0.0222 -1.04348,0.14763 -2.52078,0.9679 -2.52078,0.9679 l 2.56212,4.05712 c -4.00638,4.53674 -5.48497,6.95535 -5.66322,8.25686 a 3.6905515,3.9857957 83.246428 0 0 -2.41743,3.84886 3.6905515,3.9857957 83.246428 0 0 4.3925,3.19618 3.6905515,3.9857957 83.246428 0 0 3.52382,-4.13359 3.6905515,3.9857957 83.246428 0 0 -0.50488,-1.42627 c 0.54176,-1.53856 1.92454,-5.14179 3.44268,-6.40375 1.35384,-1.12536 4.96921,1.79008 4.96921,1.79008 l 0.34158,-3.80649 c 0,0 -5.55293,-1.15397 -7.15099,-5.99085 -0.087,-0.26322 -0.32507,-0.36983 -0.63872,-0.37827 z m -4.60437,14.55053 a 2.0940461,2.26157 83.246428 0 1 2.49184,1.81333 2.0940461,2.26157 83.246428 0 1 -1.99936,2.34559 2.0940461,2.26157 83.246428 0 1 -2.49236,-1.81332 2.0940461,2.26157 83.246428 0 1 1.99988,-2.3456 z" /></g></g></svg>
