<?xml version="1.0" encoding="UTF-8" standalone="no"?>
<!-- Created with Inkscape (http://www.inkscape.org/) -->

<svg
   width="71.804207mm"
   height="71.804184mm"
   viewBox="0 0 71.804207 71.804184"
   version="1.1"
   id="svg1"
   xml:space="preserve"
   xmlns="http://www.w3.org/2000/svg"
   xmlns:svg="http://www.w3.org/2000/svg"><defs
     id="defs1" /><g
     id="layer1"
     transform="translate(-607.13008,122.74166)"><g
       id="g43"><rect
         style="fill:#b90707;fill-opacity:1;stroke:#204f6b;stroke-width:0;stroke-linecap:square;stroke-linejoin:round;paint-order:stroke markers fill"
         id="rect25-7-2-4-7"
         width="71.804184"
         height="71.804184"
         x="607.13007"
         y="-122.74165" /><path
         id="path2-4"
         style="fill:#fff9ff;fill-opacity:1;stroke:#204f6b;stroke-width:0;stroke-linecap:square;stroke-linejoin:round;paint-order:stroke markers fill"
         d="m 664.24068,-111.14815 c 0,0 -11.00101,14.853942 -29.22922,29.229218 -1.63339,1.288133 3.54294,5.511291 3.54294,5.511291 0,0 18.29227,-12.965072 23.42234,-22.241536 2.20285,-3.983303 2.26394,-12.498973 2.26394,-12.498973 z m -32.41921,28.859731 c -1.05359,0.02391 -2.61689,0.665076 -2.61689,0.665076 l 2.06706,4.329968 c -4.51211,4.03412 -6.26488,6.262377 -6.59495,7.533907 a 3.9857957,3.6905515 0 0 0 -2.85305,3.537769 3.9857957,3.6905515 0 0 0 3.9858,3.69073 3.9857957,3.6905515 0 0 0 3.9858,-3.69073 3.9857957,3.6905515 0 0 0 -0.33383,-1.475879 c 0.71894,-1.464186 2.51582,-4.879497 4.17184,-5.954159 1.47679,-0.958349 4.72426,2.361613 4.72426,2.361613 l 0.78703,-3.739823 c 0,0 -5.37887,-1.799038 -6.39702,-6.790283 -0.0739,-0.362166 -0.44714,-0.479057 -0.92605,-0.468189 z m -5.94744,13.925765 a 2.26157,2.0940461 0 0 1 2.26136,2.093929 2.26157,2.0940461 0 0 1 -2.26136,2.093929 2.26157,2.0940461 0 0 1 -2.26187,-2.093929 2.26157,2.0940461 0 0 1 2.26187,-2.093929 z" /></g></g></svg>
