<?xml version="1.0" encoding="UTF-8" standalone="no"?>
<!-- Created with Inkscape (http://www.inkscape.org/) -->

<svg
   width="71.804176mm"
   height="71.804192mm"
   viewBox="0 0 71.804176 71.804192"
   version="1.1"
   id="svg1"
   xml:space="preserve"
   xmlns="http://www.w3.org/2000/svg"
   xmlns:svg="http://www.w3.org/2000/svg"><defs
     id="defs1" /><g
     id="layer1"
     transform="translate(221.97562,-238.70411)"><g
       id="g31"
       transform="translate(-90.462604,-87.590775)"><rect
         style="fill:#a6a9a0;fill-opacity:1;stroke:#204f6b;stroke-width:0;stroke-linecap:square;stroke-linejoin:round;paint-order:stroke markers fill"
         id="rect25-7-0"
         width="71.804184"
         height="71.804184"
         x="-131.51302"
         y="326.29489" /><path
         id="path9-4"
         style="fill:#000000;fill-opacity:1;stroke:#204f6b;stroke-width:0;stroke-linecap:square;stroke-linejoin:round;paint-order:stroke markers fill"
         d="m -76.016464,342.06179 -16.16703,0.33363 0.0272,9.51142 4.98545,-0.0785 0.17523,-3.91729 6.35408,-0.31945 -0.26282,5.87543 -15.40707,0.21652 -0.0851,5.27971 19.92008,0.13634 z m -22.78815,1.08339 -17.037276,-0.46 0.33309,16.16751 9.51197,-0.0277 -0.0791,-4.98495 -3.9173,-0.17523 -0.3194,-6.3546 5.87542,0.26282 0.21653,15.40708 5.279676,0.0856 z m 11.80345,18.26866 -5.2797,-0.0851 -0.13637,19.9206 17.03728,0.46001 -0.33309,-16.16751 -9.51197,0.0277 0.0791,4.98495 3.9173,0.17522 0.31942,6.35461 -5.87543,-0.26282 z m -7.82408,4.01691 -19.920086,-0.13583 -0.46054,17.03725 16.167536,-0.33359 -0.0272,-9.51143 -4.985456,0.079 -0.17521,3.91677 -6.35462,0.31994 0.26284,-5.87595 15.407586,-0.21653 z" /></g></g></svg>
