<?xml version="1.0" encoding="UTF-8" standalone="no"?>
<!-- Created with Inkscape (http://www.inkscape.org/) -->

<svg
   width="71.804184mm"
   height="71.804192mm"
   viewBox="0 0 71.804184 71.804192"
   version="1.1"
   id="svg1"
   xml:space="preserve"
   xmlns="http://www.w3.org/2000/svg"
   xmlns:svg="http://www.w3.org/2000/svg"><defs
     id="defs1" /><g
     id="layer1"
     transform="translate(130.83481,-238.7815)"><g
       id="g30"><rect
         style="fill:#a6a9a0;fill-opacity:1;stroke:#204f6b;stroke-width:0;stroke-linecap:square;stroke-linejoin:round;paint-order:stroke markers fill"
         id="rect25-7-1"
         width="71.804184"
         height="71.804184"
         x="-130.83481"
         y="238.78149" /><g
         id="rect9-0"
         transform="translate(0.65517663,-2.7905307)"><path
           style="color:#000000;fill:#000001;stroke-linecap:square;stroke-linejoin:round;-inkscape-stroke:none;paint-order:stroke markers fill"
           d="m -96.189453,257.89648 -18.976567,18.97657 a 0.85008502,0.85008502 0 0 0 0,1.20312 l 18.97852,18.97656 a 0.85008502,0.85008502 0 0 0 1.201172,0 l 18.976562,-18.97656 a 0.85008502,0.85008502 0 0 0 0,-1.20312 l -18.976562,-18.97657 a 0.85008502,0.85008502 0 0 0 -1.203125,0 z m 0.601562,1.80469 17.775391,17.77344 -17.775391,17.77539 -17.773439,-17.77539 z m -0.601562,3.92578 -13.246097,13.2461 a 0.85008502,0.85008502 0 0 0 0,1.20312 l 13.246097,13.2461 a 0.85008502,0.85008502 0 0 0 1.203125,0 l 13.246094,-13.2461 a 0.85008502,0.85008502 0 0 0 0,-1.20312 l -13.246094,-13.2461 a 0.85008502,0.85008502 0 0 0 -1.203125,0 z m 0.601562,1.80469 12.044922,12.04297 -12.044922,12.04492 -12.042969,-12.04492 z"
           id="path25" /><path
           style="color:#000000;fill:#000000;stroke-linecap:square;stroke-linejoin:round;-inkscape-stroke:none;paint-order:stroke markers fill"
           d="m -95.587447,258.49791 -18.977133,18.97713 18.97714,18.97662 18.976618,-18.97662 z m 0,5.73091 13.246224,13.24623 -13.246217,13.24621 -13.24622,-13.24622 z"
           id="path26" /></g></g></g></svg>
