<?xml version="1.0" encoding="UTF-8" standalone="no"?>
<!-- Created with Inkscape (http://www.inkscape.org/) -->

<svg
   width="71.804184mm"
   height="71.804214mm"
   viewBox="0 0 71.804184 71.804214"
   version="1.1"
   id="svg1"
   xml:space="preserve"
   xmlns="http://www.w3.org/2000/svg"
   xmlns:svg="http://www.w3.org/2000/svg"><defs
     id="defs1" /><g
     id="layer1"
     transform="translate(105.03958,-501.23381)"><g
       id="g33"
       transform="translate(4.2871264e-6,1.4359114)"><rect
         style="fill:#cc9340;fill-opacity:1;stroke:#204f6b;stroke-width:0;stroke-linecap:square;stroke-linejoin:round;paint-order:stroke markers fill"
         id="rect25-7-19-4"
         width="71.804184"
         height="71.804184"
         x="-105.03958"
         y="499.79791" /><path
         id="path2-0"
         style="fill:#ffffff;fill-opacity:1;stroke:#204f6b;stroke-width:0;stroke-linecap:square;stroke-linejoin:round;paint-order:stroke markers fill"
         d="m -47.928965,511.39141 c 0,0 -11.001014,14.85394 -29.229223,29.22922 -1.633386,1.28813 3.542936,5.51129 3.542936,5.51129 0,0 18.292274,-12.96507 23.422343,-22.24153 2.20285,-3.98331 2.263944,-12.49898 2.263944,-12.49898 z m -32.41921,28.85973 c -1.053597,0.0239 -2.616894,0.66508 -2.616894,0.66508 l 2.067057,4.32997 c -4.512103,4.03412 -6.264875,6.26237 -6.594946,7.5339 a 3.9857957,3.6905515 0 0 0 -2.853056,3.53777 3.9857957,3.6905515 0 0 0 3.985803,3.69073 3.9857957,3.6905515 0 0 0 3.985804,-3.69073 3.9857957,3.6905515 0 0 0 -0.33383,-1.47588 c 0.718937,-1.46418 2.515823,-4.87949 4.171838,-5.95415 1.476786,-0.95835 4.72426,2.36161 4.72426,2.36161 l 0.787032,-3.73982 c 0,0 -5.378867,-1.79904 -6.397026,-6.79029 -0.07388,-0.36216 -0.447133,-0.47905 -0.926042,-0.46819 z m -5.94744,13.92577 a 2.26157,2.0940461 0 0 1 2.261361,2.09393 2.26157,2.0940461 0 0 1 -2.261361,2.09393 2.26157,2.0940461 0 0 1 -2.261878,-2.09393 2.26157,2.0940461 0 0 1 2.261878,-2.09393 z" /></g></g></svg>
