<?xml version="1.0" encoding="UTF-8" standalone="no"?>
<!-- Created with Inkscape (http://www.inkscape.org/) -->

<svg
   width="71.804184mm"
   height="71.804214mm"
   viewBox="0 0 71.804184 71.804214"
   version="1.1"
   id="svg1"
   xml:space="preserve"
   xmlns="http://www.w3.org/2000/svg"
   xmlns:svg="http://www.w3.org/2000/svg"><defs
     id="defs1" /><g
     id="layer1"
     transform="translate(110.12734,-593.43852)"><g
       id="g35"><rect
         style="fill:#cc9340;fill-opacity:1;stroke:#204f6b;stroke-width:0;stroke-linecap:square;stroke-linejoin:round;paint-order:stroke markers fill"
         id="rect25-7-19-0"
         width="71.804184"
         height="71.804184"
         x="-110.12734"
         y="593.43854" /><path
         id="path4-9-7"
         style="fill:#ffffff;fill-opacity:1;stroke:#204f6b;stroke-width:0;stroke-linecap:square;stroke-linejoin:round;paint-order:stroke markers fill"
         d="m -100.09131,603.33553 c 0,0 8.186959,16.99866 7.460519,12.10882 -0.23088,-1.55412 -0.0254,-3.21717 0.79995,-3.85093 0.68404,-0.52523 2.26826,-0.76567 4.67104,-0.78807 0.79515,-0.007 -12.931509,-7.46982 -12.931509,-7.46982 z m 10.782799,9.69449 -1.58026,1.52498 31.51797,31.3986 c -0.0531,0.18466 -0.0833,0.39089 -0.0863,0.62321 -0.0434,3.3652 7.66111,11.21629 6.73964,8.01864 -0.73744,-2.55906 1.33293,-4.38331 3.5543,-3.87367 3.30347,0.7579 -4.42675,-6.14483 -7.75766,-6.05389 -0.23505,0.006 -0.45214,0.0236 -0.65526,0.0501 z" /></g></g></svg>
