<?xml version="1.0" encoding="UTF-8" standalone="no"?>
<!-- Created with Inkscape (http://www.inkscape.org/) -->

<svg
   width="71.804176mm"
   height="71.804214mm"
   viewBox="0 0 71.804176 71.804214"
   version="1.1"
   id="svg1"
   xml:space="preserve"
   xmlns="http://www.w3.org/2000/svg"
   xmlns:svg="http://www.w3.org/2000/svg"><defs
     id="defs1" /><g
     id="layer1"
     transform="translate(195.10727,-684.18071)"><g
       id="g36"><rect
         style="fill:#cc9340;fill-opacity:1;stroke:#204f6b;stroke-width:0;stroke-linecap:square;stroke-linejoin:round;paint-order:stroke markers fill"
         id="rect25-7-19-2"
         width="71.804184"
         height="71.804184"
         x="-195.10728"
         y="684.18073" /><path
         id="path6-0-7-9"
         style="fill:#ffffff;fill-opacity:1;stroke:#204f6b;stroke-width:0;stroke-linecap:square;stroke-linejoin:round;paint-order:stroke markers fill"
         d="m -157.78004,692.98145 c 0,0 6.12505,9.38422 10.45518,22.77587 0.38802,1.2 3.87987,-0.85214 3.87987,-0.85214 0,0 -3.51491,-13.13123 -7.70703,-18.00252 -1.80011,-2.09173 -6.62802,-3.92121 -6.62802,-3.92121 z m -22.48906,3.10472 c -0.47902,0.11257 -0.60731,-0.16768 -2.0898,1.73013 l 46.19666,44.96418 c 1.70726,-0.22387 1.85345,-1.22814 1.98955,-2.23759 z m 37.73154,18.77353 c 0,0 -2.15604,2.67869 -5.20795,2.20555 -0.22145,-0.0343 -0.36671,0.15332 -0.46147,0.42788 -0.20845,0.60396 -0.17363,1.62781 -0.17363,1.62781 l 2.89698,-0.26251 c 1.3423,3.41517 2.23961,4.88101 2.89285,5.33662 a 2.2374769,2.4164751 20.341936 0 0 1.41025,2.3673 2.2374769,2.4164751 20.341936 0 0 2.9378,-1.48777 2.2374769,2.4164751 20.341936 0 0 -1.2578,-3.04374 2.2374769,2.4164751 20.341936 0 0 -0.90951,-0.12092 c -0.68081,-0.71727 -2.24338,-2.45878 -2.50527,-3.62665 -0.23355,-1.04146 2.33784,-2.18798 2.33784,-2.18798 z m -35.15651,1.66605 c -0.0397,0.006 -0.0772,0.0235 -0.11058,0.0517 -0.71492,0.60239 -6.22276,5.58823 -6.43269,11.58482 -0.0398,1.1374 3.19114,-6.19624 7.89978,-9.22993 0.47222,-0.30426 -0.76017,-2.50391 -1.35651,-2.40657 z m 4.28863,2.88716 c -0.0299,-4.3e-4 -0.0604,0.004 -0.092,0.015 -0.40606,0.13658 -1.01027,0.56429 -1.72135,1.18804 -3.08133,2.70295 -8.17087,9.08381 -7.85223,11.37088 0.10417,0.74771 3.15908,2.75957 4.90409,3.93103 1.24488,0.8357 0.63316,1.97807 1.49449,2.74609 0.59651,0.53188 1.46724,1.13434 2.25102,0.73535 3.8703,-1.97019 7.52526,-5.68153 8.55658,-7.26467 0.21811,-0.33484 -1.30846,-0.35251 -1.57509,-0.72192 -4.84677,-6.71539 -5.03821,-11.98637 -5.96553,-11.99979 z m 33.03623,3.48093 a 1.2695609,1.3711259 20.341936 0 1 0.49196,0.0708 1.2695609,1.3711259 20.341936 0 1 0.71365,1.72702 1.2695609,1.3711259 20.341936 0 1 -1.66708,0.84439 1.2695609,1.3711259 20.341936 0 1 -0.71366,-1.72702 1.2695609,1.3711259 20.341936 0 1 1.17513,-0.91519 z m -15.99644,4.56664 c -0.25002,-0.007 -0.48022,0.17517 -0.65681,0.59687 -2.16678,5.17432 -6.54478,4.54615 -7.1205,4.96249 -0.0185,0.0136 -0.033,0.028 -0.0434,0.0439 -1.75871,2.663 -4.25844,6.30848 -8.66252,8.09253 -0.98698,0.39982 1.61803,2.51735 1.9482,4.05505 0.10437,0.4861 -0.53832,1.14956 -0.30489,1.58853 0.60073,1.12973 1.02463,-0.55435 1.80505,-0.92656 4.93656,-2.35437 12.97387,-8.72119 13.61054,-9.49761 2.71033,-3.30518 0.77441,-8.87617 -0.57567,-8.91522 z" /></g></g></svg>
