<?xml version="1.0" encoding="UTF-8" standalone="no"?>
<!-- Created with Inkscape (http://www.inkscape.org/) -->

<svg
   width="71.804184mm"
   height="71.804146mm"
   viewBox="0 0 71.804184 71.804146"
   version="1.1"
   id="svg1"
   xml:space="preserve"
   xmlns="http://www.w3.org/2000/svg"
   xmlns:svg="http://www.w3.org/2000/svg"><defs
     id="defs1" /><g
     id="layer1"
     transform="translate(105.47422,-687.20555)"><g
       id="g37"><rect
         style="fill:#cc9340;fill-opacity:1;stroke:#204f6b;stroke-width:0;stroke-linecap:square;stroke-linejoin:round;paint-order:stroke markers fill"
         id="rect25-7-19-8"
         width="71.804184"
         height="71.804184"
         x="-105.47421"
         y="687.20551" /><path
         id="path6-0-45"
         style="fill:#ffffff;fill-opacity:1;stroke:#204f6b;stroke-width:0;stroke-linecap:square;stroke-linejoin:round;paint-order:stroke markers fill"
         d="m -58.301549,696.5739 c -3.57171,0.23773 -6.96255,1.05686 -6.47712,8.44806 l 1.78284,-0.12144 c 0.0845,-2.26795 -0.90094,-4.49421 2.81895,-6.58874 l 0.21704,2.06809 1.75906,0.045 z m 4.13825,0.0992 c -0.33826,0.0138 -0.69428,0.0645 -1.07125,0.15761 l -0.0522,12.9558 1.92546,0.0682 -0.20722,-11.45769 c 1.36574,-0.0741 2.25407,0.82566 2.73678,2.01693 l 1.9017,-0.19327 c -1.38828,-1.9127 -2.86547,-3.64387 -5.23328,-3.54759 z m -37.27524,1.87069 c -0.47902,0.11257 -0.60731,-0.1682 -2.0898,1.72961 l 46.19667,44.96469 c 1.70726,-0.22387 1.85344,-1.22865 1.98954,-2.2381 z m 40.60217,2.81585 c -0.52625,0.0118 -1.07208,0.0554 -1.63401,0.12609 l 0.0258,1.45004 c 2.41541,0.0308 4.99207,-0.65677 6.56549,3.12849 l -6.91689,0.22376 0.0496,1.56889 9.00927,-0.22686 c -0.68383,-4.86553 -3.41556,-6.35335 -7.09931,-6.27041 z m -5.12785,0.25011 -6.06165,0.0331 0.0729,1.3069 5.96708,0.15761 z m -9.55652,0.0145 c -1.71741,0.73783 -3.99775,1.2146 -3.93723,6.04356 l 8.55813,0.17725 0.0925,-1.61644 -6.56084,-0.18035 c -0.0278,-0.97031 0.31238,-1.90393 1.92133,-2.49907 z m 14.86059,2.37866 0.0258,1.25988 1.87792,-0.0264 -0.0734,-1.21233 z m -7.44037,0.13023 -1.90118,0.003 0.0558,5.75211 1.90169,-0.0977 z m 2.11925,2.15956 -1.56942,0.0501 0.0264,1.45004 1.59267,0.0212 z m 7.4197,2.36626 -1.92495,0.0269 0.002,1.2361 1.99678,-0.003 z m -16.23519,0.19017 0.1509,5.70508 1.78284,0.0682 0.0393,-5.7521 z m 14.89729,1.94458 c -5.2693,-0.0248 -12.18427,0.14367 -12.18427,0.14367 l 0.0258,1.54512 15.92668,0.0243 c -0.20062,1.06105 -0.80221,2.02212 -2.01641,2.83135 l 0.26406,1.54461 c 0,0 5.44095,-2.84939 3.84215,-5.75779 -0.12736,-0.23167 -2.69647,-0.31639 -5.85804,-0.33125 z m -19.7435,0.0599 c 0.26748,1.79759 0.59118,3.5617 1.79885,4.81314 1.20769,1.25141 3.29903,1.98981 7.10086,1.73426 l 0.11679,-1.59266 -5.15937,-0.63459 c -1.60572,-1.18733 -1.43759,-1.78605 -1.59629,-2.49339 l 1.97301,-0.12195 0.0212,-1.64021 z m 19.94917,2.34456 c -0.44641,0.0115 -0.88109,0.0992 -0.88109,0.0992 0,0 0.50293,5.97073 -2.81894,6.58874 -0.40423,0.0753 -0.0507,-1.85415 -0.0507,-1.85415 l -1.83038,-0.0682 -0.13642,4.08864 c 0,0 7.96725,0.24527 6.66729,-8.49612 -0.0453,-0.30481 -0.50341,-0.36965 -0.94981,-0.35812 z m -10.36629,0.0894 c -0.18675,1.89565 0.32652,6.72689 -0.0372,6.70347 -2.20275,-0.14178 -2.44675,-2.19154 -2.40399,-2.15956 0,0 -1.98221,-0.25496 -1.83038,0.26406 0.28143,0.96204 0.73146,1.69158 1.26246,2.24431 1.89643,1.97371 4.82864,1.69292 4.82864,1.69292 l 0.0351,-8.70024 z m 4.82606,0.0165 0.0496,1.37872 1.8066,0.045 -0.0496,-1.37873 z m -2.13631,2.33267 -0.0212,1.54564 6.0141,0.0145 0.0693,-1.45004 z m -31.49316,3.34657 c -0.0398,0.006 -0.0767,0.023 -0.11008,0.0512 -0.71491,0.60238 -6.22326,5.58874 -6.43319,11.58533 -0.0398,1.1374 3.19114,-6.19624 7.89977,-9.22992 0.47222,-0.30427 -0.76017,-2.50391 -1.3565,-2.40657 z m 4.28914,2.88664 c -0.0299,-4.3e-4 -0.0609,0.005 -0.0925,0.0155 -0.40606,0.13658 -1.01026,0.5643 -1.72134,1.18805 -3.08134,2.70294 -8.17036,9.08328 -7.85172,11.37036 0.10417,0.74771 3.15856,2.76008 4.90358,3.93154 1.24487,0.8357 0.63315,1.97755 1.49448,2.74557 0.59651,0.53189 1.46724,1.13435 2.25102,0.73536 3.8703,-1.97019 7.52578,-5.68154 8.5571,-7.26467 0.21811,-0.33484 -1.30846,-0.35251 -1.57509,-0.72192 -4.84677,-6.71539 -5.03821,-11.98637 -5.96553,-11.99979 z m 17.03927,8.04757 c -0.25002,-0.007 -0.4797,0.17517 -0.65629,0.59686 -2.16678,5.17433 -6.54478,4.54615 -7.1205,4.96249 -0.0185,0.0136 -0.0335,0.028 -0.0439,0.0439 -1.75871,2.663 -4.25844,6.30848 -8.66252,8.09253 -0.98698,0.39982 1.61803,2.51786 1.9482,4.05556 0.10437,0.4861 -0.53832,1.14905 -0.30489,1.58802 0.60073,1.12973 1.02515,-0.55383 1.80557,-0.92604 4.93656,-2.35438 12.97336,-8.72171 13.61002,-9.49813 2.71033,-3.30518 0.77441,-8.87618 -0.57567,-8.91522 z" /></g></g></svg>
